<mxfile host="app.diagrams.net" modified="2020-09-02T21:02:49.817Z" agent="5.0 (Windows NT 10.0; Win64; x64) AppleWebKit/537.36 (KHTML, like Gecko) Chrome/85.0.4183.83 Safari/537.36" etag="97lEtM5nyr2MVYdzoqD3" version="13.6.5" type="github">
  <diagram id="C5RBs43oDa-KdzZeNtuy" name="Page-1">
    <mxGraphModel dx="3218" dy="2051" grid="1" gridSize="10" guides="1" tooltips="1" connect="1" arrows="1" fold="1" page="1" pageScale="1" pageWidth="827" pageHeight="1169" math="0" shadow="0">
      <root>
        <mxCell id="WIyWlLk6GJQsqaUBKTNV-0" />
        <mxCell id="WIyWlLk6GJQsqaUBKTNV-1" parent="WIyWlLk6GJQsqaUBKTNV-0" />
        <mxCell id="v1RKLjTQbKLcgLYHgIqZ-0" value="Persistencia&amp;nbsp;" style="shape=folder;fontStyle=1;spacingTop=10;tabWidth=130;tabHeight=10;tabPosition=left;labelPosition=center;verticalLabelPosition=middle;align=center;verticalAlign=top;textDirection=ltr;html=1;" parent="WIyWlLk6GJQsqaUBKTNV-1" vertex="1">
          <mxGeometry x="-350" y="-1130" width="590" height="670" as="geometry" />
        </mxCell>
        <mxCell id="v1RKLjTQbKLcgLYHgIqZ-1" value="&lt;div&gt;&lt;span&gt;Apresentacao&lt;/span&gt;&lt;/div&gt;" style="shape=folder;fontStyle=1;spacingTop=10;tabWidth=130;tabHeight=10;tabPosition=left;labelPosition=center;verticalLabelPosition=middle;align=center;verticalAlign=top;textDirection=ltr;html=1;" parent="WIyWlLk6GJQsqaUBKTNV-1" vertex="1">
          <mxGeometry x="-1380" y="-1134" width="360" height="474" as="geometry" />
        </mxCell>
        <mxCell id="9aMHDprkIO95SvwNTu-h-10" value="&lt;div&gt;&lt;span&gt;Dados&lt;/span&gt;&lt;/div&gt;" style="shape=folder;fontStyle=1;spacingTop=10;tabWidth=130;tabHeight=10;tabPosition=left;labelPosition=center;verticalLabelPosition=middle;align=center;verticalAlign=top;textDirection=ltr;html=1;" parent="WIyWlLk6GJQsqaUBKTNV-1" vertex="1">
          <mxGeometry x="-990" y="-1134" width="590" height="464" as="geometry" />
        </mxCell>
        <mxCell id="9aMHDprkIO95SvwNTu-h-35" value="Use" style="endArrow=open;endSize=12;dashed=1;html=1;verticalAlign=top;entryX=-0.017;entryY=0.18;entryDx=0;entryDy=0;entryPerimeter=0;exitX=0.5;exitY=0;exitDx=0;exitDy=0;" parent="WIyWlLk6GJQsqaUBKTNV-1" source="9aMHDprkIO95SvwNTu-h-27" target="9aMHDprkIO95SvwNTu-h-15" edge="1">
          <mxGeometry x="0.1409" y="17" width="160" relative="1" as="geometry">
            <mxPoint x="-530" y="-950" as="sourcePoint" />
            <mxPoint x="-690" y="-950" as="targetPoint" />
            <mxPoint as="offset" />
          </mxGeometry>
        </mxCell>
        <mxCell id="9aMHDprkIO95SvwNTu-h-40" value="Use" style="endArrow=open;endSize=12;dashed=1;html=1;exitX=0.362;exitY=-0.021;exitDx=0;exitDy=0;exitPerimeter=0;entryX=1;entryY=0.5;entryDx=0;entryDy=0;" parent="WIyWlLk6GJQsqaUBKTNV-1" source="9aMHDprkIO95SvwNTu-h-36" target="9aMHDprkIO95SvwNTu-h-15" edge="1">
          <mxGeometry width="160" relative="1" as="geometry">
            <mxPoint x="-690" y="-870" as="sourcePoint" />
            <mxPoint x="-530" y="-870" as="targetPoint" />
          </mxGeometry>
        </mxCell>
        <mxCell id="9aMHDprkIO95SvwNTu-h-56" value="Negocios" style="shape=folder;fontStyle=1;spacingTop=10;tabWidth=120;tabHeight=10;tabPosition=left;html=1;align=center;verticalAlign=top;" parent="WIyWlLk6GJQsqaUBKTNV-1" vertex="1">
          <mxGeometry x="-990" y="-661" width="620" height="621" as="geometry" />
        </mxCell>
        <mxCell id="9aMHDprkIO95SvwNTu-h-12" value="Pessoas" style="swimlane;fontStyle=0;childLayout=stackLayout;horizontal=1;startSize=26;fillColor=none;horizontalStack=0;resizeParent=1;resizeParentMax=0;resizeLast=0;collapsible=1;marginBottom=0;align=left;html=1;verticalAlign=top;" parent="WIyWlLk6GJQsqaUBKTNV-1" vertex="1">
          <mxGeometry x="-780" y="-1090" width="140" height="152" as="geometry" />
        </mxCell>
        <mxCell id="9aMHDprkIO95SvwNTu-h-13" value="- nome : String" style="text;strokeColor=none;fillColor=none;align=left;verticalAlign=top;spacingLeft=4;spacingRight=4;overflow=hidden;rotatable=0;points=[[0,0.5],[1,0.5]];portConstraint=eastwest;" parent="9aMHDprkIO95SvwNTu-h-12" vertex="1">
          <mxGeometry y="26" width="140" height="26" as="geometry" />
        </mxCell>
        <mxCell id="9aMHDprkIO95SvwNTu-h-14" value="- idade : int" style="text;strokeColor=none;fillColor=none;align=left;verticalAlign=top;spacingLeft=4;spacingRight=4;overflow=hidden;rotatable=0;points=[[0,0.5],[1,0.5]];portConstraint=eastwest;" parent="9aMHDprkIO95SvwNTu-h-12" vertex="1">
          <mxGeometry y="52" width="140" height="26" as="geometry" />
        </mxCell>
        <mxCell id="9aMHDprkIO95SvwNTu-h-15" value="- cpf : String&#xa;" style="text;strokeColor=none;fillColor=none;align=left;verticalAlign=top;spacingLeft=4;spacingRight=4;overflow=hidden;rotatable=0;points=[[0,0.5],[1,0.5]];portConstraint=eastwest;" parent="9aMHDprkIO95SvwNTu-h-12" vertex="1">
          <mxGeometry y="78" width="140" height="22" as="geometry" />
        </mxCell>
        <mxCell id="9aMHDprkIO95SvwNTu-h-22" value="- cidade : String" style="text;strokeColor=none;fillColor=none;align=left;verticalAlign=top;spacingLeft=4;spacingRight=4;overflow=hidden;rotatable=0;points=[[0,0.5],[1,0.5]];portConstraint=eastwest;html=1;" parent="9aMHDprkIO95SvwNTu-h-12" vertex="1">
          <mxGeometry y="100" width="140" height="26" as="geometry" />
        </mxCell>
        <mxCell id="KHj5EBnZgxn2LjwYI5dc-8" value="- id : int" style="text;strokeColor=none;fillColor=none;align=left;verticalAlign=top;spacingLeft=4;spacingRight=4;overflow=hidden;rotatable=0;points=[[0,0.5],[1,0.5]];portConstraint=eastwest;" vertex="1" parent="9aMHDprkIO95SvwNTu-h-12">
          <mxGeometry y="126" width="140" height="26" as="geometry" />
        </mxCell>
        <mxCell id="KHj5EBnZgxn2LjwYI5dc-1" style="edgeStyle=orthogonalEdgeStyle;rounded=0;orthogonalLoop=1;jettySize=auto;html=1;exitX=0.75;exitY=1;exitDx=0;exitDy=0;entryX=0;entryY=0.5;entryDx=0;entryDy=0;" edge="1" parent="WIyWlLk6GJQsqaUBKTNV-1" source="9aMHDprkIO95SvwNTu-h-27" target="9aMHDprkIO95SvwNTu-h-43">
          <mxGeometry relative="1" as="geometry" />
        </mxCell>
        <mxCell id="9aMHDprkIO95SvwNTu-h-27" value="Paciente" style="swimlane;fontStyle=0;childLayout=stackLayout;horizontal=1;startSize=26;fillColor=none;horizontalStack=0;resizeParent=1;resizeParentMax=0;resizeLast=0;collapsible=1;marginBottom=0;align=left;html=1;verticalAlign=top;" parent="WIyWlLk6GJQsqaUBKTNV-1" vertex="1">
          <mxGeometry x="-967" y="-972" width="140" height="106" as="geometry" />
        </mxCell>
        <mxCell id="9aMHDprkIO95SvwNTu-h-28" value="- descricao : String" style="text;strokeColor=none;fillColor=none;align=left;verticalAlign=top;spacingLeft=4;spacingRight=4;overflow=hidden;rotatable=0;points=[[0,0.5],[1,0.5]];portConstraint=eastwest;" parent="9aMHDprkIO95SvwNTu-h-27" vertex="1">
          <mxGeometry y="26" width="140" height="26" as="geometry" />
        </mxCell>
        <mxCell id="9aMHDprkIO95SvwNTu-h-29" value="- idP : int" style="text;strokeColor=none;fillColor=none;align=left;verticalAlign=top;spacingLeft=4;spacingRight=4;overflow=hidden;rotatable=0;points=[[0,0.5],[1,0.5]];portConstraint=eastwest;" parent="9aMHDprkIO95SvwNTu-h-27" vertex="1">
          <mxGeometry y="52" width="140" height="28" as="geometry" />
        </mxCell>
        <mxCell id="KHj5EBnZgxn2LjwYI5dc-7" value="- idPes : int" style="text;strokeColor=none;fillColor=none;align=left;verticalAlign=top;spacingLeft=4;spacingRight=4;overflow=hidden;rotatable=0;points=[[0,0.5],[1,0.5]];portConstraint=eastwest;" vertex="1" parent="9aMHDprkIO95SvwNTu-h-27">
          <mxGeometry y="80" width="140" height="26" as="geometry" />
        </mxCell>
        <mxCell id="KHj5EBnZgxn2LjwYI5dc-2" style="edgeStyle=orthogonalEdgeStyle;rounded=0;orthogonalLoop=1;jettySize=auto;html=1;exitX=0.25;exitY=1;exitDx=0;exitDy=0;entryX=1;entryY=0.5;entryDx=0;entryDy=0;" edge="1" parent="WIyWlLk6GJQsqaUBKTNV-1" source="9aMHDprkIO95SvwNTu-h-36" target="9aMHDprkIO95SvwNTu-h-43">
          <mxGeometry relative="1" as="geometry" />
        </mxCell>
        <mxCell id="9aMHDprkIO95SvwNTu-h-36" value="Medico" style="swimlane;fontStyle=0;childLayout=stackLayout;horizontal=1;startSize=26;fillColor=none;horizontalStack=0;resizeParent=1;resizeParentMax=0;resizeLast=0;collapsible=1;marginBottom=0;align=center;html=1;" parent="WIyWlLk6GJQsqaUBKTNV-1" vertex="1">
          <mxGeometry x="-590" y="-970" width="140" height="104" as="geometry" />
        </mxCell>
        <mxCell id="9aMHDprkIO95SvwNTu-h-37" value="- especialidade : String" style="text;strokeColor=none;fillColor=none;align=left;verticalAlign=top;spacingLeft=4;spacingRight=4;overflow=hidden;rotatable=0;points=[[0,0.5],[1,0.5]];portConstraint=eastwest;" parent="9aMHDprkIO95SvwNTu-h-36" vertex="1">
          <mxGeometry y="26" width="140" height="26" as="geometry" />
        </mxCell>
        <mxCell id="9aMHDprkIO95SvwNTu-h-38" value="-id : int&#xa;" style="text;strokeColor=none;fillColor=none;align=left;verticalAlign=top;spacingLeft=4;spacingRight=4;overflow=hidden;rotatable=0;points=[[0,0.5],[1,0.5]];portConstraint=eastwest;" parent="9aMHDprkIO95SvwNTu-h-36" vertex="1">
          <mxGeometry y="52" width="140" height="26" as="geometry" />
        </mxCell>
        <mxCell id="KHj5EBnZgxn2LjwYI5dc-6" value="- idPes : int" style="text;strokeColor=none;fillColor=none;align=left;verticalAlign=top;spacingLeft=4;spacingRight=4;overflow=hidden;rotatable=0;points=[[0,0.5],[1,0.5]];portConstraint=eastwest;" vertex="1" parent="9aMHDprkIO95SvwNTu-h-36">
          <mxGeometry y="78" width="140" height="26" as="geometry" />
        </mxCell>
        <mxCell id="9aMHDprkIO95SvwNTu-h-88" value="" style="endArrow=open;endFill=1;endSize=12;html=1;strokeWidth=1;startArrow=none;startFill=0;exitX=0.668;exitY=0;exitDx=0;exitDy=0;exitPerimeter=0;entryX=0.872;entryY=1.109;entryDx=0;entryDy=0;entryPerimeter=0;" parent="WIyWlLk6GJQsqaUBKTNV-1" source="9aMHDprkIO95SvwNTu-h-64" target="9aMHDprkIO95SvwNTu-h-44" edge="1">
          <mxGeometry width="160" relative="1" as="geometry">
            <mxPoint x="-640" y="-550" as="sourcePoint" />
            <mxPoint x="-480" y="-550" as="targetPoint" />
          </mxGeometry>
        </mxCell>
        <mxCell id="9aMHDprkIO95SvwNTu-h-89" value="0..*" style="text;html=1;align=center;verticalAlign=middle;resizable=0;points=[];autosize=1;" parent="WIyWlLk6GJQsqaUBKTNV-1" vertex="1">
          <mxGeometry x="-650" y="-694" width="30" height="20" as="geometry" />
        </mxCell>
        <mxCell id="9aMHDprkIO95SvwNTu-h-90" value="" style="endArrow=open;endFill=1;endSize=12;html=1;strokeWidth=1;startArrow=none;startFill=0;exitX=0.951;exitY=-0.006;exitDx=0;exitDy=0;exitPerimeter=0;" parent="WIyWlLk6GJQsqaUBKTNV-1" source="9aMHDprkIO95SvwNTu-h-64" edge="1">
          <mxGeometry width="160" relative="1" as="geometry">
            <mxPoint x="-647.9200000000001" y="-520" as="sourcePoint" />
            <mxPoint x="-472" y="-860" as="targetPoint" />
            <Array as="points">
              <mxPoint x="-472" y="-680" />
            </Array>
          </mxGeometry>
        </mxCell>
        <mxCell id="9aMHDprkIO95SvwNTu-h-91" value="0..*" style="text;html=1;align=center;verticalAlign=middle;resizable=0;points=[];autosize=1;" parent="WIyWlLk6GJQsqaUBKTNV-1" vertex="1">
          <mxGeometry x="-460" y="-854" width="30" height="20" as="geometry" />
        </mxCell>
        <mxCell id="9aMHDprkIO95SvwNTu-h-92" value="" style="endArrow=open;endFill=1;endSize=12;html=1;strokeWidth=1;startArrow=none;startFill=0;exitX=0.035;exitY=-0.006;exitDx=0;exitDy=0;exitPerimeter=0;entryX=0.448;entryY=1.036;entryDx=0;entryDy=0;entryPerimeter=0;" parent="WIyWlLk6GJQsqaUBKTNV-1" source="9aMHDprkIO95SvwNTu-h-64" target="KHj5EBnZgxn2LjwYI5dc-7" edge="1">
          <mxGeometry width="160" relative="1" as="geometry">
            <mxPoint x="-560.19" y="-522.028" as="sourcePoint" />
            <mxPoint x="-461.98" y="-880.388" as="targetPoint" />
            <Array as="points">
              <mxPoint x="-904" y="-680" />
            </Array>
          </mxGeometry>
        </mxCell>
        <mxCell id="9aMHDprkIO95SvwNTu-h-93" value="0..*" style="text;html=1;align=center;verticalAlign=middle;resizable=0;points=[];autosize=1;" parent="WIyWlLk6GJQsqaUBKTNV-1" vertex="1">
          <mxGeometry x="-950" y="-860" width="30" height="20" as="geometry" />
        </mxCell>
        <mxCell id="9aMHDprkIO95SvwNTu-h-94" value="-medicos" style="text;html=1;align=center;verticalAlign=middle;resizable=0;points=[];autosize=1;rotation=0;" parent="WIyWlLk6GJQsqaUBKTNV-1" vertex="1">
          <mxGeometry x="-473" y="-840" width="60" height="20" as="geometry" />
        </mxCell>
        <mxCell id="9aMHDprkIO95SvwNTu-h-95" value="-pacientes" style="text;html=1;align=center;verticalAlign=middle;resizable=0;points=[];autosize=1;" parent="WIyWlLk6GJQsqaUBKTNV-1" vertex="1">
          <mxGeometry x="-990" y="-840" width="70" height="20" as="geometry" />
        </mxCell>
        <mxCell id="9aMHDprkIO95SvwNTu-h-96" value="-consultas" style="text;html=1;align=center;verticalAlign=middle;resizable=0;points=[];autosize=1;" parent="WIyWlLk6GJQsqaUBKTNV-1" vertex="1">
          <mxGeometry x="-730" y="-694" width="70" height="20" as="geometry" />
        </mxCell>
        <mxCell id="9aMHDprkIO95SvwNTu-h-64" value="Sistema" style="swimlane;fontStyle=0;childLayout=stackLayout;horizontal=1;startSize=26;fillColor=none;horizontalStack=0;resizeParent=1;resizeParentMax=0;resizeLast=0;collapsible=1;marginBottom=0;align=center;html=1;" parent="WIyWlLk6GJQsqaUBKTNV-1" vertex="1">
          <mxGeometry x="-865" y="-600" width="310" height="520" as="geometry" />
        </mxCell>
        <mxCell id="v1RKLjTQbKLcgLYHgIqZ-6" value="" style="endArrow=open;endFill=1;endSize=12;html=1;strokeWidth=1;startArrow=none;startFill=0;exitX=0.035;exitY=-0.006;exitDx=0;exitDy=0;exitPerimeter=0;" parent="9aMHDprkIO95SvwNTu-h-64" target="v1RKLjTQbKLcgLYHgIqZ-2" edge="1">
          <mxGeometry width="160" relative="1" as="geometry">
            <mxPoint x="-1.1368683772161603e-13" y="104.00199999999995" as="sourcePoint" />
            <mxPoint x="-63.42999999999995" y="-181.23800000000006" as="targetPoint" />
            <Array as="points" />
          </mxGeometry>
        </mxCell>
        <mxCell id="KHj5EBnZgxn2LjwYI5dc-42" value="+ cadastrarPessoa (pessoa : Pessoa) : void" style="text;strokeColor=none;fillColor=none;align=left;verticalAlign=top;spacingLeft=4;spacingRight=4;overflow=hidden;rotatable=0;points=[[0,0.5],[1,0.5]];portConstraint=eastwest;" vertex="1" parent="9aMHDprkIO95SvwNTu-h-64">
          <mxGeometry y="26" width="310" height="26" as="geometry" />
        </mxCell>
        <mxCell id="9aMHDprkIO95SvwNTu-h-65" value="+ cadastrarPaciente (paciente : Paciente) : void" style="text;strokeColor=none;fillColor=none;align=left;verticalAlign=top;spacingLeft=4;spacingRight=4;overflow=hidden;rotatable=0;points=[[0,0.5],[1,0.5]];portConstraint=eastwest;" parent="9aMHDprkIO95SvwNTu-h-64" vertex="1">
          <mxGeometry y="52" width="310" height="26" as="geometry" />
        </mxCell>
        <mxCell id="9aMHDprkIO95SvwNTu-h-66" value="+ cadastrarMedico (medico : Medico) : void" style="text;strokeColor=none;fillColor=none;align=left;verticalAlign=top;spacingLeft=4;spacingRight=4;overflow=hidden;rotatable=0;points=[[0,0.5],[1,0.5]];portConstraint=eastwest;" parent="9aMHDprkIO95SvwNTu-h-64" vertex="1">
          <mxGeometry y="78" width="310" height="26" as="geometry" />
        </mxCell>
        <mxCell id="9aMHDprkIO95SvwNTu-h-67" value="+ realizarConsulta (consulta Consulta) : void" style="text;strokeColor=none;fillColor=none;align=left;verticalAlign=top;spacingLeft=4;spacingRight=4;overflow=hidden;rotatable=0;points=[[0,0.5],[1,0.5]];portConstraint=eastwest;" parent="9aMHDprkIO95SvwNTu-h-64" vertex="1">
          <mxGeometry y="104" width="310" height="26" as="geometry" />
        </mxCell>
        <mxCell id="KHj5EBnZgxn2LjwYI5dc-41" value="+ buscarPessoa (cpf : String) : Pessoa" style="text;strokeColor=none;fillColor=none;align=left;verticalAlign=top;spacingLeft=4;spacingRight=4;overflow=hidden;rotatable=0;points=[[0,0.5],[1,0.5]];portConstraint=eastwest;" vertex="1" parent="9aMHDprkIO95SvwNTu-h-64">
          <mxGeometry y="130" width="310" height="26" as="geometry" />
        </mxCell>
        <mxCell id="9aMHDprkIO95SvwNTu-h-72" value="+ buscarPacientes () : ArrayList&amp;lt;Paciente&amp;gt;" style="text;strokeColor=none;fillColor=none;align=left;verticalAlign=top;spacingLeft=4;spacingRight=4;overflow=hidden;rotatable=0;points=[[0,0.5],[1,0.5]];portConstraint=eastwest;html=1;" parent="9aMHDprkIO95SvwNTu-h-64" vertex="1">
          <mxGeometry y="156" width="310" height="26" as="geometry" />
        </mxCell>
        <mxCell id="KHj5EBnZgxn2LjwYI5dc-38" value="+ buscarPaciente (id : int) : Paciente" style="text;strokeColor=none;fillColor=none;align=left;verticalAlign=top;spacingLeft=4;spacingRight=4;overflow=hidden;rotatable=0;points=[[0,0.5],[1,0.5]];portConstraint=eastwest;html=1;" vertex="1" parent="9aMHDprkIO95SvwNTu-h-64">
          <mxGeometry y="182" width="310" height="26" as="geometry" />
        </mxCell>
        <mxCell id="9aMHDprkIO95SvwNTu-h-73" value="+ buscarMedicos () : ArrayList&amp;lt;Medico&amp;gt;" style="text;strokeColor=none;fillColor=none;align=left;verticalAlign=top;spacingLeft=4;spacingRight=4;overflow=hidden;rotatable=0;points=[[0,0.5],[1,0.5]];portConstraint=eastwest;html=1;" parent="9aMHDprkIO95SvwNTu-h-64" vertex="1">
          <mxGeometry y="208" width="310" height="26" as="geometry" />
        </mxCell>
        <mxCell id="KHj5EBnZgxn2LjwYI5dc-39" value="+ buscarMedico (id: int) : Medico" style="text;strokeColor=none;fillColor=none;align=left;verticalAlign=top;spacingLeft=4;spacingRight=4;overflow=hidden;rotatable=0;points=[[0,0.5],[1,0.5]];portConstraint=eastwest;html=1;" vertex="1" parent="9aMHDprkIO95SvwNTu-h-64">
          <mxGeometry y="234" width="310" height="26" as="geometry" />
        </mxCell>
        <mxCell id="9aMHDprkIO95SvwNTu-h-74" value="+ mostrarConsultas () : ArrayList&amp;lt;Consulta&amp;gt;" style="text;strokeColor=none;fillColor=none;align=left;verticalAlign=top;spacingLeft=4;spacingRight=4;overflow=hidden;rotatable=0;points=[[0,0.5],[1,0.5]];portConstraint=eastwest;html=1;" parent="9aMHDprkIO95SvwNTu-h-64" vertex="1">
          <mxGeometry y="260" width="310" height="26" as="geometry" />
        </mxCell>
        <mxCell id="KHj5EBnZgxn2LjwYI5dc-40" value="+ buscarConsulta (id : int) : Consulta" style="text;strokeColor=none;fillColor=none;align=left;verticalAlign=top;spacingLeft=4;spacingRight=4;overflow=hidden;rotatable=0;points=[[0,0.5],[1,0.5]];portConstraint=eastwest;html=1;" vertex="1" parent="9aMHDprkIO95SvwNTu-h-64">
          <mxGeometry y="286" width="310" height="26" as="geometry" />
        </mxCell>
        <mxCell id="KHj5EBnZgxn2LjwYI5dc-43" value="+ removerPessoa&amp;nbsp; (pessoa: Pessoa) : void" style="text;strokeColor=none;fillColor=none;align=left;verticalAlign=top;spacingLeft=4;spacingRight=4;overflow=hidden;rotatable=0;points=[[0,0.5],[1,0.5]];portConstraint=eastwest;html=1;" vertex="1" parent="9aMHDprkIO95SvwNTu-h-64">
          <mxGeometry y="312" width="310" height="26" as="geometry" />
        </mxCell>
        <mxCell id="9aMHDprkIO95SvwNTu-h-75" value="+ removerPaciente (paciente : Paciente) : void" style="text;strokeColor=none;fillColor=none;align=left;verticalAlign=top;spacingLeft=4;spacingRight=4;overflow=hidden;rotatable=0;points=[[0,0.5],[1,0.5]];portConstraint=eastwest;html=1;" parent="9aMHDprkIO95SvwNTu-h-64" vertex="1">
          <mxGeometry y="338" width="310" height="26" as="geometry" />
        </mxCell>
        <mxCell id="9aMHDprkIO95SvwNTu-h-76" value="+ removerMedico (medico : Medico) : void" style="text;strokeColor=none;fillColor=none;align=left;verticalAlign=top;spacingLeft=4;spacingRight=4;overflow=hidden;rotatable=0;points=[[0,0.5],[1,0.5]];portConstraint=eastwest;html=1;" parent="9aMHDprkIO95SvwNTu-h-64" vertex="1">
          <mxGeometry y="364" width="310" height="26" as="geometry" />
        </mxCell>
        <mxCell id="9aMHDprkIO95SvwNTu-h-77" value="+ removerConsulta (consulta: Consulta) : void" style="text;strokeColor=none;fillColor=none;align=left;verticalAlign=top;spacingLeft=4;spacingRight=4;overflow=hidden;rotatable=0;points=[[0,0.5],[1,0.5]];portConstraint=eastwest;html=1;" parent="9aMHDprkIO95SvwNTu-h-64" vertex="1">
          <mxGeometry y="390" width="310" height="26" as="geometry" />
        </mxCell>
        <mxCell id="KHj5EBnZgxn2LjwYI5dc-37" value="+ alterarPessoa (pessoa: Pessoa) : void" style="text;strokeColor=none;fillColor=none;align=left;verticalAlign=top;spacingLeft=4;spacingRight=4;overflow=hidden;rotatable=0;points=[[0,0.5],[1,0.5]];portConstraint=eastwest;" vertex="1" parent="9aMHDprkIO95SvwNTu-h-64">
          <mxGeometry y="416" width="310" height="26" as="geometry" />
        </mxCell>
        <mxCell id="9aMHDprkIO95SvwNTu-h-78" value="+ alterarPaciente (paciente : Paciente) : void" style="text;strokeColor=none;fillColor=none;align=left;verticalAlign=top;spacingLeft=4;spacingRight=4;overflow=hidden;rotatable=0;points=[[0,0.5],[1,0.5]];portConstraint=eastwest;html=1;" parent="9aMHDprkIO95SvwNTu-h-64" vertex="1">
          <mxGeometry y="442" width="310" height="26" as="geometry" />
        </mxCell>
        <mxCell id="9aMHDprkIO95SvwNTu-h-79" value="+ alterarMedico (medico: Medico) : void" style="text;strokeColor=none;fillColor=none;align=left;verticalAlign=top;spacingLeft=4;spacingRight=4;overflow=hidden;rotatable=0;points=[[0,0.5],[1,0.5]];portConstraint=eastwest;html=1;" parent="9aMHDprkIO95SvwNTu-h-64" vertex="1">
          <mxGeometry y="468" width="310" height="26" as="geometry" />
        </mxCell>
        <mxCell id="9aMHDprkIO95SvwNTu-h-80" value="+ alterarConsulta (consulta: Consulta) : void" style="text;strokeColor=none;fillColor=none;align=left;verticalAlign=top;spacingLeft=4;spacingRight=4;overflow=hidden;rotatable=0;points=[[0,0.5],[1,0.5]];portConstraint=eastwest;html=1;" parent="9aMHDprkIO95SvwNTu-h-64" vertex="1">
          <mxGeometry y="494" width="310" height="26" as="geometry" />
        </mxCell>
        <mxCell id="9aMHDprkIO95SvwNTu-h-41" value="Consulta" style="swimlane;fontStyle=0;childLayout=stackLayout;horizontal=1;startSize=26;fillColor=none;horizontalStack=0;resizeParent=1;resizeParentMax=0;resizeLast=0;collapsible=1;marginBottom=0;align=center;html=1;" parent="WIyWlLk6GJQsqaUBKTNV-1" vertex="1">
          <mxGeometry x="-780" y="-902" width="140" height="130" as="geometry" />
        </mxCell>
        <mxCell id="9aMHDprkIO95SvwNTu-h-42" value="- id : int" style="text;strokeColor=none;fillColor=none;align=left;verticalAlign=top;spacingLeft=4;spacingRight=4;overflow=hidden;rotatable=0;points=[[0,0.5],[1,0.5]];portConstraint=eastwest;" parent="9aMHDprkIO95SvwNTu-h-41" vertex="1">
          <mxGeometry y="26" width="140" height="26" as="geometry" />
        </mxCell>
        <mxCell id="9aMHDprkIO95SvwNTu-h-43" value="- valor : float" style="text;strokeColor=none;fillColor=none;align=left;verticalAlign=top;spacingLeft=4;spacingRight=4;overflow=hidden;rotatable=0;points=[[0,0.5],[1,0.5]];portConstraint=eastwest;" parent="9aMHDprkIO95SvwNTu-h-41" vertex="1">
          <mxGeometry y="52" width="140" height="26" as="geometry" />
        </mxCell>
        <mxCell id="9aMHDprkIO95SvwNTu-h-45" value="- horario : Calendar" style="text;strokeColor=none;fillColor=none;align=left;verticalAlign=top;spacingLeft=4;spacingRight=4;overflow=hidden;rotatable=0;points=[[0,0.5],[1,0.5]];portConstraint=eastwest;html=1;" parent="9aMHDprkIO95SvwNTu-h-41" vertex="1">
          <mxGeometry y="78" width="140" height="26" as="geometry" />
        </mxCell>
        <mxCell id="9aMHDprkIO95SvwNTu-h-44" value="- diagnostico : String" style="text;strokeColor=none;fillColor=none;align=left;verticalAlign=top;spacingLeft=4;spacingRight=4;overflow=hidden;rotatable=0;points=[[0,0.5],[1,0.5]];portConstraint=eastwest;" parent="9aMHDprkIO95SvwNTu-h-41" vertex="1">
          <mxGeometry y="104" width="140" height="26" as="geometry" />
        </mxCell>
        <mxCell id="v1RKLjTQbKLcgLYHgIqZ-7" value="-sistema" style="text;html=1;align=center;verticalAlign=middle;resizable=0;points=[];autosize=1;" parent="WIyWlLk6GJQsqaUBKTNV-1" vertex="1">
          <mxGeometry x="-1130" y="-834" width="60" height="20" as="geometry" />
        </mxCell>
        <mxCell id="v1RKLjTQbKLcgLYHgIqZ-20" value="PessoaDAO" style="swimlane;fontStyle=1;align=center;verticalAlign=top;childLayout=stackLayout;horizontal=1;startSize=26;horizontalStack=0;resizeParent=1;resizeParentMax=0;resizeLast=0;collapsible=1;marginBottom=0;" parent="WIyWlLk6GJQsqaUBKTNV-1" vertex="1">
          <mxGeometry x="-310" y="-1079" width="200" height="214" as="geometry" />
        </mxCell>
        <mxCell id="v1RKLjTQbKLcgLYHgIqZ-22" value="" style="line;strokeWidth=1;fillColor=none;align=left;verticalAlign=middle;spacingTop=-1;spacingLeft=3;spacingRight=3;rotatable=0;labelPosition=right;points=[];portConstraint=eastwest;" parent="v1RKLjTQbKLcgLYHgIqZ-20" vertex="1">
          <mxGeometry y="26" width="200" height="8" as="geometry" />
        </mxCell>
        <mxCell id="KHj5EBnZgxn2LjwYI5dc-53" value="+ getInstance () : PessoaDAO" style="text;strokeColor=none;fillColor=none;align=left;verticalAlign=top;spacingLeft=4;spacingRight=4;overflow=hidden;rotatable=0;points=[[0,0.5],[1,0.5]];portConstraint=eastwest;" vertex="1" parent="v1RKLjTQbKLcgLYHgIqZ-20">
          <mxGeometry y="34" width="200" height="26" as="geometry" />
        </mxCell>
        <mxCell id="v1RKLjTQbKLcgLYHgIqZ-23" value="+ insert (pessoa : Pessoa) : void" style="text;strokeColor=none;fillColor=none;align=left;verticalAlign=top;spacingLeft=4;spacingRight=4;overflow=hidden;rotatable=0;points=[[0,0.5],[1,0.5]];portConstraint=eastwest;" parent="v1RKLjTQbKLcgLYHgIqZ-20" vertex="1">
          <mxGeometry y="60" width="200" height="26" as="geometry" />
        </mxCell>
        <mxCell id="v1RKLjTQbKLcgLYHgIqZ-40" value="+ update (pessoa : Pessoa) : void" style="text;strokeColor=none;fillColor=none;align=left;verticalAlign=top;spacingLeft=4;spacingRight=4;overflow=hidden;rotatable=0;points=[[0,0.5],[1,0.5]];portConstraint=eastwest;" parent="v1RKLjTQbKLcgLYHgIqZ-20" vertex="1">
          <mxGeometry y="86" width="200" height="26" as="geometry" />
        </mxCell>
        <mxCell id="v1RKLjTQbKLcgLYHgIqZ-36" value="+ delete (pessoa : Pessoa) : void" style="text;strokeColor=none;fillColor=none;align=left;verticalAlign=top;spacingLeft=4;spacingRight=4;overflow=hidden;rotatable=0;points=[[0,0.5],[1,0.5]];portConstraint=eastwest;" parent="v1RKLjTQbKLcgLYHgIqZ-20" vertex="1">
          <mxGeometry y="112" width="200" height="24" as="geometry" />
        </mxCell>
        <mxCell id="v1RKLjTQbKLcgLYHgIqZ-44" value="+ selectAll () : ArrayList&lt;Pessoa&gt;" style="text;strokeColor=none;fillColor=none;align=left;verticalAlign=top;spacingLeft=4;spacingRight=4;overflow=hidden;rotatable=0;points=[[0,0.5],[1,0.5]];portConstraint=eastwest;" parent="v1RKLjTQbKLcgLYHgIqZ-20" vertex="1">
          <mxGeometry y="136" width="200" height="26" as="geometry" />
        </mxCell>
        <mxCell id="v1RKLjTQbKLcgLYHgIqZ-61" value="+ SelectPes () : Pessoa" style="text;strokeColor=none;fillColor=none;align=left;verticalAlign=top;spacingLeft=4;spacingRight=4;overflow=hidden;rotatable=0;points=[[0,0.5],[1,0.5]];portConstraint=eastwest;" parent="v1RKLjTQbKLcgLYHgIqZ-20" vertex="1">
          <mxGeometry y="162" width="200" height="26" as="geometry" />
        </mxCell>
        <mxCell id="KHj5EBnZgxn2LjwYI5dc-59" value="+ selectCpf (cpf : String) : Pessoa" style="text;strokeColor=none;fillColor=none;align=left;verticalAlign=top;spacingLeft=4;spacingRight=4;overflow=hidden;rotatable=0;points=[[0,0.5],[1,0.5]];portConstraint=eastwest;" vertex="1" parent="v1RKLjTQbKLcgLYHgIqZ-20">
          <mxGeometry y="188" width="200" height="26" as="geometry" />
        </mxCell>
        <mxCell id="v1RKLjTQbKLcgLYHgIqZ-24" value="PacienteDAO" style="swimlane;fontStyle=1;align=center;verticalAlign=top;childLayout=stackLayout;horizontal=1;startSize=26;horizontalStack=0;resizeParent=1;resizeParentMax=0;resizeLast=0;collapsible=1;marginBottom=0;" parent="WIyWlLk6GJQsqaUBKTNV-1" vertex="1">
          <mxGeometry x="-50" y="-1079" width="210" height="190" as="geometry" />
        </mxCell>
        <mxCell id="v1RKLjTQbKLcgLYHgIqZ-26" value="" style="line;strokeWidth=1;fillColor=none;align=left;verticalAlign=middle;spacingTop=-1;spacingLeft=3;spacingRight=3;rotatable=0;labelPosition=right;points=[];portConstraint=eastwest;" parent="v1RKLjTQbKLcgLYHgIqZ-24" vertex="1">
          <mxGeometry y="26" width="210" height="8" as="geometry" />
        </mxCell>
        <mxCell id="KHj5EBnZgxn2LjwYI5dc-52" value="+ getInstance () : PacienteDAO" style="text;strokeColor=none;fillColor=none;align=left;verticalAlign=top;spacingLeft=4;spacingRight=4;overflow=hidden;rotatable=0;points=[[0,0.5],[1,0.5]];portConstraint=eastwest;" vertex="1" parent="v1RKLjTQbKLcgLYHgIqZ-24">
          <mxGeometry y="34" width="210" height="26" as="geometry" />
        </mxCell>
        <mxCell id="v1RKLjTQbKLcgLYHgIqZ-27" value="+ insert (paciente : Paciente) : void" style="text;strokeColor=none;fillColor=none;align=left;verticalAlign=top;spacingLeft=4;spacingRight=4;overflow=hidden;rotatable=0;points=[[0,0.5],[1,0.5]];portConstraint=eastwest;" parent="v1RKLjTQbKLcgLYHgIqZ-24" vertex="1">
          <mxGeometry y="60" width="210" height="26" as="geometry" />
        </mxCell>
        <mxCell id="v1RKLjTQbKLcgLYHgIqZ-43" value="+ update (paciente : Paciente) : void" style="text;strokeColor=none;fillColor=none;align=left;verticalAlign=top;spacingLeft=4;spacingRight=4;overflow=hidden;rotatable=0;points=[[0,0.5],[1,0.5]];portConstraint=eastwest;" parent="v1RKLjTQbKLcgLYHgIqZ-24" vertex="1">
          <mxGeometry y="86" width="210" height="26" as="geometry" />
        </mxCell>
        <mxCell id="v1RKLjTQbKLcgLYHgIqZ-37" value="+ delete (paciente : Paciente) : void" style="text;strokeColor=none;fillColor=none;align=left;verticalAlign=top;spacingLeft=4;spacingRight=4;overflow=hidden;rotatable=0;points=[[0,0.5],[1,0.5]];portConstraint=eastwest;" parent="v1RKLjTQbKLcgLYHgIqZ-24" vertex="1">
          <mxGeometry y="112" width="210" height="26" as="geometry" />
        </mxCell>
        <mxCell id="v1RKLjTQbKLcgLYHgIqZ-45" value="+ selectAll() : ArrayList&lt;Paciente&gt;" style="text;strokeColor=none;fillColor=none;align=left;verticalAlign=top;spacingLeft=4;spacingRight=4;overflow=hidden;rotatable=0;points=[[0,0.5],[1,0.5]];portConstraint=eastwest;" parent="v1RKLjTQbKLcgLYHgIqZ-24" vertex="1">
          <mxGeometry y="138" width="210" height="26" as="geometry" />
        </mxCell>
        <mxCell id="v1RKLjTQbKLcgLYHgIqZ-62" value="+ selectPac () : Paciente" style="text;strokeColor=none;fillColor=none;align=left;verticalAlign=top;spacingLeft=4;spacingRight=4;overflow=hidden;rotatable=0;points=[[0,0.5],[1,0.5]];portConstraint=eastwest;" parent="v1RKLjTQbKLcgLYHgIqZ-24" vertex="1">
          <mxGeometry y="164" width="210" height="26" as="geometry" />
        </mxCell>
        <mxCell id="v1RKLjTQbKLcgLYHgIqZ-55" value="" style="endArrow=classic;html=1;exitX=0.01;exitY=-0.013;exitDx=0;exitDy=0;dashed=1;exitPerimeter=0;" parent="WIyWlLk6GJQsqaUBKTNV-1" source="v1RKLjTQbKLcgLYHgIqZ-41" edge="1">
          <mxGeometry width="50" height="50" relative="1" as="geometry">
            <mxPoint x="-130.07999999999993" y="-630.0020000000001" as="sourcePoint" />
            <mxPoint x="-543" y="-860" as="targetPoint" />
            <Array as="points">
              <mxPoint x="-543" y="-690" />
            </Array>
          </mxGeometry>
        </mxCell>
        <mxCell id="v1RKLjTQbKLcgLYHgIqZ-56" value="" style="endArrow=classic;html=1;exitX=0;exitY=0.5;exitDx=0;exitDy=0;dashed=1;entryX=0.971;entryY=0.015;entryDx=0;entryDy=0;entryPerimeter=0;" parent="WIyWlLk6GJQsqaUBKTNV-1" source="v1RKLjTQbKLcgLYHgIqZ-40" target="9aMHDprkIO95SvwNTu-h-15" edge="1">
          <mxGeometry width="50" height="50" relative="1" as="geometry">
            <mxPoint x="-917.56" y="-862.8320000000001" as="sourcePoint" />
            <mxPoint x="-1057.48" y="-495.05999999999995" as="targetPoint" />
          </mxGeometry>
        </mxCell>
        <mxCell id="v1RKLjTQbKLcgLYHgIqZ-58" value="" style="endArrow=classic;html=1;exitX=0.498;exitY=1;exitDx=0;exitDy=0;entryX=0.155;entryY=-0.062;entryDx=0;entryDy=0;dashed=1;exitPerimeter=0;entryPerimeter=0;" parent="WIyWlLk6GJQsqaUBKTNV-1" source="v1RKLjTQbKLcgLYHgIqZ-45" target="9aMHDprkIO95SvwNTu-h-27" edge="1">
          <mxGeometry width="50" height="50" relative="1" as="geometry">
            <mxPoint x="-897.56" y="-842.8320000000001" as="sourcePoint" />
            <mxPoint x="-1037.48" y="-475.05999999999995" as="targetPoint" />
            <Array as="points">
              <mxPoint x="55" y="-910" />
              <mxPoint x="-370" y="-910" />
              <mxPoint x="-380" y="-1140" />
              <mxPoint x="-945" y="-1150" />
            </Array>
          </mxGeometry>
        </mxCell>
        <mxCell id="KHj5EBnZgxn2LjwYI5dc-4" value="- paciente" style="text;html=1;align=center;verticalAlign=middle;resizable=0;points=[];autosize=1;" vertex="1" parent="WIyWlLk6GJQsqaUBKTNV-1">
          <mxGeometry x="-845" y="-840" width="70" height="20" as="geometry" />
        </mxCell>
        <mxCell id="KHj5EBnZgxn2LjwYI5dc-5" value="- medico&lt;br&gt;" style="text;html=1;align=center;verticalAlign=middle;resizable=0;points=[];autosize=1;" vertex="1" parent="WIyWlLk6GJQsqaUBKTNV-1">
          <mxGeometry x="-640" y="-840" width="60" height="20" as="geometry" />
        </mxCell>
        <mxCell id="KHj5EBnZgxn2LjwYI5dc-9" value="Exceptions&lt;br&gt;" style="shape=folder;fontStyle=1;spacingTop=10;tabWidth=120;tabHeight=10;tabPosition=left;html=1;align=center;verticalAlign=top;" vertex="1" parent="WIyWlLk6GJQsqaUBKTNV-1">
          <mxGeometry x="-360" y="-350" width="590" height="310" as="geometry" />
        </mxCell>
        <mxCell id="KHj5EBnZgxn2LjwYI5dc-24" style="edgeStyle=orthogonalEdgeStyle;rounded=0;orthogonalLoop=1;jettySize=auto;html=1;exitX=0.5;exitY=1;exitDx=0;exitDy=0;entryX=0;entryY=0.75;entryDx=0;entryDy=0;endArrow=block;endFill=0;" edge="1" parent="WIyWlLk6GJQsqaUBKTNV-1" source="KHj5EBnZgxn2LjwYI5dc-19" target="KHj5EBnZgxn2LjwYI5dc-14">
          <mxGeometry relative="1" as="geometry">
            <Array as="points">
              <mxPoint x="-270" y="-160" />
              <mxPoint x="-170" y="-160" />
              <mxPoint x="-170" y="-101" />
            </Array>
          </mxGeometry>
        </mxCell>
        <mxCell id="KHj5EBnZgxn2LjwYI5dc-27" style="edgeStyle=orthogonalEdgeStyle;rounded=0;orthogonalLoop=1;jettySize=auto;html=1;exitX=1;exitY=0.5;exitDx=0;exitDy=0;entryX=0.25;entryY=1;entryDx=0;entryDy=0;endArrow=block;endFill=0;" edge="1" parent="WIyWlLk6GJQsqaUBKTNV-1" source="KHj5EBnZgxn2LjwYI5dc-18" target="KHj5EBnZgxn2LjwYI5dc-14">
          <mxGeometry relative="1" as="geometry" />
        </mxCell>
        <mxCell id="KHj5EBnZgxn2LjwYI5dc-25" style="edgeStyle=orthogonalEdgeStyle;rounded=0;orthogonalLoop=1;jettySize=auto;html=1;exitX=0.5;exitY=1;exitDx=0;exitDy=0;entryX=1;entryY=0.75;entryDx=0;entryDy=0;endArrow=block;endFill=0;" edge="1" parent="WIyWlLk6GJQsqaUBKTNV-1" source="KHj5EBnZgxn2LjwYI5dc-20" target="KHj5EBnZgxn2LjwYI5dc-14">
          <mxGeometry relative="1" as="geometry">
            <Array as="points">
              <mxPoint x="140" y="-160" />
              <mxPoint x="40" y="-160" />
              <mxPoint x="40" y="-101" />
            </Array>
          </mxGeometry>
        </mxCell>
        <mxCell id="KHj5EBnZgxn2LjwYI5dc-26" style="edgeStyle=orthogonalEdgeStyle;rounded=0;orthogonalLoop=1;jettySize=auto;html=1;exitX=0;exitY=0.5;exitDx=0;exitDy=0;entryX=0.75;entryY=1;entryDx=0;entryDy=0;endArrow=block;endFill=0;" edge="1" parent="WIyWlLk6GJQsqaUBKTNV-1" source="KHj5EBnZgxn2LjwYI5dc-21" target="KHj5EBnZgxn2LjwYI5dc-14">
          <mxGeometry relative="1" as="geometry" />
        </mxCell>
        <mxCell id="KHj5EBnZgxn2LjwYI5dc-28" style="edgeStyle=orthogonalEdgeStyle;rounded=0;orthogonalLoop=1;jettySize=auto;html=1;exitX=1;exitY=0.5;exitDx=0;exitDy=0;entryX=0.432;entryY=1.017;entryDx=0;entryDy=0;entryPerimeter=0;endArrow=open;endFill=0;" edge="1" parent="WIyWlLk6GJQsqaUBKTNV-1" source="9aMHDprkIO95SvwNTu-h-66" target="v1RKLjTQbKLcgLYHgIqZ-63">
          <mxGeometry relative="1" as="geometry">
            <Array as="points">
              <mxPoint x="-555" y="-530" />
              <mxPoint x="-224" y="-530" />
            </Array>
          </mxGeometry>
        </mxCell>
        <mxCell id="KHj5EBnZgxn2LjwYI5dc-29" style="edgeStyle=orthogonalEdgeStyle;rounded=0;orthogonalLoop=1;jettySize=auto;html=1;exitX=1;exitY=0.5;exitDx=0;exitDy=0;endArrow=open;endFill=0;" edge="1" parent="WIyWlLk6GJQsqaUBKTNV-1" source="9aMHDprkIO95SvwNTu-h-67">
          <mxGeometry relative="1" as="geometry">
            <mxPoint x="100" y="-550" as="targetPoint" />
            <Array as="points">
              <mxPoint x="-555" y="-510" />
              <mxPoint x="100" y="-510" />
            </Array>
          </mxGeometry>
        </mxCell>
        <mxCell id="KHj5EBnZgxn2LjwYI5dc-30" style="edgeStyle=orthogonalEdgeStyle;rounded=0;orthogonalLoop=1;jettySize=auto;html=1;exitX=1;exitY=0.5;exitDx=0;exitDy=0;endArrow=open;endFill=0;" edge="1" parent="WIyWlLk6GJQsqaUBKTNV-1" source="9aMHDprkIO95SvwNTu-h-72">
          <mxGeometry relative="1" as="geometry">
            <mxPoint x="160" y="-928" as="targetPoint" />
            <Array as="points">
              <mxPoint x="210" y="-483" />
              <mxPoint x="210" y="-928" />
            </Array>
          </mxGeometry>
        </mxCell>
        <mxCell id="KHj5EBnZgxn2LjwYI5dc-31" style="edgeStyle=orthogonalEdgeStyle;rounded=0;orthogonalLoop=1;jettySize=auto;html=1;exitX=1;exitY=0.5;exitDx=0;exitDy=0;endArrow=open;endFill=0;" edge="1" parent="WIyWlLk6GJQsqaUBKTNV-1" source="9aMHDprkIO95SvwNTu-h-65">
          <mxGeometry relative="1" as="geometry">
            <mxPoint x="-310" y="-956" as="targetPoint" />
            <Array as="points">
              <mxPoint x="-555" y="-560" />
              <mxPoint x="-360" y="-560" />
              <mxPoint x="-360" y="-956" />
            </Array>
          </mxGeometry>
        </mxCell>
        <mxCell id="KHj5EBnZgxn2LjwYI5dc-32" value="-pessoaDAO" style="text;html=1;align=center;verticalAlign=middle;resizable=0;points=[];autosize=1;" vertex="1" parent="WIyWlLk6GJQsqaUBKTNV-1">
          <mxGeometry x="-558" y="-584" width="80" height="20" as="geometry" />
        </mxCell>
        <mxCell id="KHj5EBnZgxn2LjwYI5dc-33" value="-medicoDAO" style="text;html=1;align=center;verticalAlign=middle;resizable=0;points=[];autosize=1;" vertex="1" parent="WIyWlLk6GJQsqaUBKTNV-1">
          <mxGeometry x="-560" y="-550" width="80" height="20" as="geometry" />
        </mxCell>
        <mxCell id="KHj5EBnZgxn2LjwYI5dc-34" value="-consultaDAO" style="text;html=1;align=center;verticalAlign=middle;resizable=0;points=[];autosize=1;" vertex="1" parent="WIyWlLk6GJQsqaUBKTNV-1">
          <mxGeometry x="-563" y="-530" width="90" height="20" as="geometry" />
        </mxCell>
        <mxCell id="KHj5EBnZgxn2LjwYI5dc-36" value="- pacienteDAO" style="text;html=1;align=center;verticalAlign=middle;resizable=0;points=[];autosize=1;" vertex="1" parent="WIyWlLk6GJQsqaUBKTNV-1">
          <mxGeometry x="-560" y="-500" width="90" height="20" as="geometry" />
        </mxCell>
        <mxCell id="KHj5EBnZgxn2LjwYI5dc-14" value="Exception" style="swimlane;fontStyle=0;childLayout=stackLayout;horizontal=1;startSize=26;fillColor=none;horizontalStack=0;resizeParent=1;resizeParentMax=0;resizeLast=0;collapsible=1;marginBottom=0;" vertex="1" parent="WIyWlLk6GJQsqaUBKTNV-1">
          <mxGeometry x="-135" y="-140" width="140" height="52" as="geometry" />
        </mxCell>
        <mxCell id="KHj5EBnZgxn2LjwYI5dc-18" value="DeleteException" style="swimlane;fontStyle=0;childLayout=stackLayout;horizontal=1;startSize=26;fillColor=none;horizontalStack=0;resizeParent=1;resizeParentMax=0;resizeLast=0;collapsible=1;marginBottom=0;" vertex="1" parent="WIyWlLk6GJQsqaUBKTNV-1">
          <mxGeometry x="-340" y="-120" width="140" height="60" as="geometry" />
        </mxCell>
        <mxCell id="KHj5EBnZgxn2LjwYI5dc-21" value="SelectException" style="swimlane;fontStyle=0;childLayout=stackLayout;horizontal=1;startSize=26;fillColor=none;horizontalStack=0;resizeParent=1;resizeParentMax=0;resizeLast=0;collapsible=1;marginBottom=0;" vertex="1" parent="WIyWlLk6GJQsqaUBKTNV-1">
          <mxGeometry x="70" y="-120" width="140" height="52" as="geometry" />
        </mxCell>
        <mxCell id="KHj5EBnZgxn2LjwYI5dc-19" value="InsertException" style="swimlane;fontStyle=0;childLayout=stackLayout;horizontal=1;startSize=26;fillColor=none;horizontalStack=0;resizeParent=1;resizeParentMax=0;resizeLast=0;collapsible=1;marginBottom=0;" vertex="1" parent="WIyWlLk6GJQsqaUBKTNV-1">
          <mxGeometry x="-340" y="-230" width="140" height="52" as="geometry" />
        </mxCell>
        <mxCell id="KHj5EBnZgxn2LjwYI5dc-20" value="UpdateException" style="swimlane;fontStyle=0;childLayout=stackLayout;horizontal=1;startSize=26;fillColor=none;horizontalStack=0;resizeParent=1;resizeParentMax=0;resizeLast=0;collapsible=1;marginBottom=0;" vertex="1" parent="WIyWlLk6GJQsqaUBKTNV-1">
          <mxGeometry x="70" y="-230" width="140" height="52" as="geometry" />
        </mxCell>
        <mxCell id="v1RKLjTQbKLcgLYHgIqZ-28" value="MedicoDAO" style="swimlane;fontStyle=1;align=center;verticalAlign=top;childLayout=stackLayout;horizontal=1;startSize=26;horizontalStack=0;resizeParent=1;resizeParentMax=0;resizeLast=0;collapsible=1;marginBottom=0;" parent="WIyWlLk6GJQsqaUBKTNV-1" vertex="1">
          <mxGeometry x="-310" y="-748" width="200" height="190" as="geometry" />
        </mxCell>
        <mxCell id="v1RKLjTQbKLcgLYHgIqZ-30" value="" style="line;strokeWidth=1;fillColor=none;align=left;verticalAlign=middle;spacingTop=-1;spacingLeft=3;spacingRight=3;rotatable=0;labelPosition=right;points=[];portConstraint=eastwest;" parent="v1RKLjTQbKLcgLYHgIqZ-28" vertex="1">
          <mxGeometry y="26" width="200" height="8" as="geometry" />
        </mxCell>
        <mxCell id="KHj5EBnZgxn2LjwYI5dc-48" value="+ getInstance () : MedicoDAO" style="text;strokeColor=none;fillColor=none;align=left;verticalAlign=top;spacingLeft=4;spacingRight=4;overflow=hidden;rotatable=0;points=[[0,0.5],[1,0.5]];portConstraint=eastwest;" vertex="1" parent="v1RKLjTQbKLcgLYHgIqZ-28">
          <mxGeometry y="34" width="200" height="26" as="geometry" />
        </mxCell>
        <mxCell id="v1RKLjTQbKLcgLYHgIqZ-31" value="+ insert ( medico : Medico) : void" style="text;strokeColor=none;fillColor=none;align=left;verticalAlign=top;spacingLeft=4;spacingRight=4;overflow=hidden;rotatable=0;points=[[0,0.5],[1,0.5]];portConstraint=eastwest;" parent="v1RKLjTQbKLcgLYHgIqZ-28" vertex="1">
          <mxGeometry y="60" width="200" height="26" as="geometry" />
        </mxCell>
        <mxCell id="v1RKLjTQbKLcgLYHgIqZ-41" value="+ update ( medico : Medico) : void" style="text;strokeColor=none;fillColor=none;align=left;verticalAlign=top;spacingLeft=4;spacingRight=4;overflow=hidden;rotatable=0;points=[[0,0.5],[1,0.5]];portConstraint=eastwest;" parent="v1RKLjTQbKLcgLYHgIqZ-28" vertex="1">
          <mxGeometry y="86" width="200" height="26" as="geometry" />
        </mxCell>
        <mxCell id="v1RKLjTQbKLcgLYHgIqZ-38" value="+ delete( medico : Medico) : void" style="text;strokeColor=none;fillColor=none;align=left;verticalAlign=top;spacingLeft=4;spacingRight=4;overflow=hidden;rotatable=0;points=[[0,0.5],[1,0.5]];portConstraint=eastwest;" parent="v1RKLjTQbKLcgLYHgIqZ-28" vertex="1">
          <mxGeometry y="112" width="200" height="26" as="geometry" />
        </mxCell>
        <mxCell id="v1RKLjTQbKLcgLYHgIqZ-46" value="+ selectAll() : ArrayList&lt;Medico&gt;" style="text;strokeColor=none;fillColor=none;align=left;verticalAlign=top;spacingLeft=4;spacingRight=4;overflow=hidden;rotatable=0;points=[[0,0.5],[1,0.5]];portConstraint=eastwest;" parent="v1RKLjTQbKLcgLYHgIqZ-28" vertex="1">
          <mxGeometry y="138" width="200" height="26" as="geometry" />
        </mxCell>
        <mxCell id="v1RKLjTQbKLcgLYHgIqZ-63" value="+ selectMed () : Medico" style="text;strokeColor=none;fillColor=none;align=left;verticalAlign=top;spacingLeft=4;spacingRight=4;overflow=hidden;rotatable=0;points=[[0,0.5],[1,0.5]];portConstraint=eastwest;" parent="v1RKLjTQbKLcgLYHgIqZ-28" vertex="1">
          <mxGeometry y="164" width="200" height="26" as="geometry" />
        </mxCell>
        <mxCell id="KHj5EBnZgxn2LjwYI5dc-47" style="edgeStyle=orthogonalEdgeStyle;rounded=0;orthogonalLoop=1;jettySize=auto;html=1;exitX=0.5;exitY=0;exitDx=0;exitDy=0;entryX=1;entryY=0.5;entryDx=0;entryDy=0;endArrow=open;endFill=0;dashed=1;" edge="1" parent="WIyWlLk6GJQsqaUBKTNV-1" source="v1RKLjTQbKLcgLYHgIqZ-32" target="9aMHDprkIO95SvwNTu-h-44">
          <mxGeometry relative="1" as="geometry" />
        </mxCell>
        <mxCell id="v1RKLjTQbKLcgLYHgIqZ-32" value="ConsultaDAO" style="swimlane;fontStyle=1;align=center;verticalAlign=top;childLayout=stackLayout;horizontal=1;startSize=26;horizontalStack=0;resizeParent=1;resizeParentMax=0;resizeLast=0;collapsible=1;marginBottom=0;" parent="WIyWlLk6GJQsqaUBKTNV-1" vertex="1">
          <mxGeometry x="-50" y="-748" width="210" height="190" as="geometry" />
        </mxCell>
        <mxCell id="v1RKLjTQbKLcgLYHgIqZ-34" value="" style="line;strokeWidth=1;fillColor=none;align=left;verticalAlign=middle;spacingTop=-1;spacingLeft=3;spacingRight=3;rotatable=0;labelPosition=right;points=[];portConstraint=eastwest;" parent="v1RKLjTQbKLcgLYHgIqZ-32" vertex="1">
          <mxGeometry y="26" width="210" height="8" as="geometry" />
        </mxCell>
        <mxCell id="KHj5EBnZgxn2LjwYI5dc-49" value="+ getInstance () : ConsultaDAO" style="text;strokeColor=none;fillColor=none;align=left;verticalAlign=top;spacingLeft=4;spacingRight=4;overflow=hidden;rotatable=0;points=[[0,0.5],[1,0.5]];portConstraint=eastwest;" vertex="1" parent="v1RKLjTQbKLcgLYHgIqZ-32">
          <mxGeometry y="34" width="210" height="26" as="geometry" />
        </mxCell>
        <mxCell id="v1RKLjTQbKLcgLYHgIqZ-35" value="+ insert ( consulta : Consulta ) : void" style="text;strokeColor=none;fillColor=none;align=left;verticalAlign=top;spacingLeft=4;spacingRight=4;overflow=hidden;rotatable=0;points=[[0,0.5],[1,0.5]];portConstraint=eastwest;" parent="v1RKLjTQbKLcgLYHgIqZ-32" vertex="1">
          <mxGeometry y="60" width="210" height="26" as="geometry" />
        </mxCell>
        <mxCell id="v1RKLjTQbKLcgLYHgIqZ-42" value="+ update( consulta : Consulta ) : void" style="text;strokeColor=none;fillColor=none;align=left;verticalAlign=top;spacingLeft=4;spacingRight=4;overflow=hidden;rotatable=0;points=[[0,0.5],[1,0.5]];portConstraint=eastwest;" parent="v1RKLjTQbKLcgLYHgIqZ-32" vertex="1">
          <mxGeometry y="86" width="210" height="26" as="geometry" />
        </mxCell>
        <mxCell id="v1RKLjTQbKLcgLYHgIqZ-65" value="+ getConsulta () : Consulta" style="text;strokeColor=none;fillColor=none;align=left;verticalAlign=top;spacingLeft=4;spacingRight=4;overflow=hidden;rotatable=0;points=[[0,0.5],[1,0.5]];portConstraint=eastwest;" parent="v1RKLjTQbKLcgLYHgIqZ-32" vertex="1">
          <mxGeometry y="112" width="210" height="26" as="geometry" />
        </mxCell>
        <mxCell id="KHj5EBnZgxn2LjwYI5dc-50" value="+ selectAll() : ArrayList&lt;Consulta&gt;" style="text;strokeColor=none;fillColor=none;align=left;verticalAlign=top;spacingLeft=4;spacingRight=4;overflow=hidden;rotatable=0;points=[[0,0.5],[1,0.5]];portConstraint=eastwest;" vertex="1" parent="v1RKLjTQbKLcgLYHgIqZ-32">
          <mxGeometry y="138" width="210" height="26" as="geometry" />
        </mxCell>
        <mxCell id="KHj5EBnZgxn2LjwYI5dc-51" value="+ selectCon () : Consulta" style="text;strokeColor=none;fillColor=none;align=left;verticalAlign=top;spacingLeft=4;spacingRight=4;overflow=hidden;rotatable=0;points=[[0,0.5],[1,0.5]];portConstraint=eastwest;" vertex="1" parent="v1RKLjTQbKLcgLYHgIqZ-32">
          <mxGeometry y="164" width="210" height="26" as="geometry" />
        </mxCell>
        <mxCell id="KHj5EBnZgxn2LjwYI5dc-54" value="Conexao" style="swimlane;fontStyle=0;childLayout=stackLayout;horizontal=1;startSize=26;fillColor=none;horizontalStack=0;resizeParent=1;resizeParentMax=0;resizeLast=0;collapsible=1;marginBottom=0;" vertex="1" parent="WIyWlLk6GJQsqaUBKTNV-1">
          <mxGeometry x="-150" y="-854" width="140" height="52" as="geometry" />
        </mxCell>
        <mxCell id="KHj5EBnZgxn2LjwYI5dc-58" value="- conexao : Connection" style="text;strokeColor=none;fillColor=none;align=left;verticalAlign=top;spacingLeft=4;spacingRight=4;overflow=hidden;rotatable=0;points=[[0,0.5],[1,0.5]];portConstraint=eastwest;" vertex="1" parent="KHj5EBnZgxn2LjwYI5dc-54">
          <mxGeometry y="26" width="140" height="26" as="geometry" />
        </mxCell>
        <mxCell id="v1RKLjTQbKLcgLYHgIqZ-2" value="Principal" style="swimlane;fontStyle=1;align=center;verticalAlign=top;childLayout=stackLayout;horizontal=1;startSize=26;horizontalStack=0;resizeParent=1;resizeParentMax=0;resizeLast=0;collapsible=1;marginBottom=0;" parent="WIyWlLk6GJQsqaUBKTNV-1" vertex="1">
          <mxGeometry x="-1310" y="-1068" width="160" height="374" as="geometry" />
        </mxCell>
        <mxCell id="v1RKLjTQbKLcgLYHgIqZ-4" value="" style="line;strokeWidth=1;fillColor=none;align=left;verticalAlign=middle;spacingTop=-1;spacingLeft=3;spacingRight=3;rotatable=0;labelPosition=right;points=[];portConstraint=eastwest;" parent="v1RKLjTQbKLcgLYHgIqZ-2" vertex="1">
          <mxGeometry y="26" width="160" height="8" as="geometry" />
        </mxCell>
        <mxCell id="v1RKLjTQbKLcgLYHgIqZ-5" value="+ adicionarP: void&#xa;" style="text;strokeColor=none;fillColor=none;align=left;verticalAlign=top;spacingLeft=4;spacingRight=4;overflow=hidden;rotatable=0;points=[[0,0.5],[1,0.5]];portConstraint=eastwest;" parent="v1RKLjTQbKLcgLYHgIqZ-2" vertex="1">
          <mxGeometry y="34" width="160" height="26" as="geometry" />
        </mxCell>
        <mxCell id="v1RKLjTQbKLcgLYHgIqZ-12" value="+ adicionarM: void&#xa;" style="text;strokeColor=none;fillColor=none;align=left;verticalAlign=top;spacingLeft=4;spacingRight=4;overflow=hidden;rotatable=0;points=[[0,0.5],[1,0.5]];portConstraint=eastwest;" parent="v1RKLjTQbKLcgLYHgIqZ-2" vertex="1">
          <mxGeometry y="60" width="160" height="26" as="geometry" />
        </mxCell>
        <mxCell id="v1RKLjTQbKLcgLYHgIqZ-13" value="+ adicionarC: void&#xa;" style="text;strokeColor=none;fillColor=none;align=left;verticalAlign=top;spacingLeft=4;spacingRight=4;overflow=hidden;rotatable=0;points=[[0,0.5],[1,0.5]];portConstraint=eastwest;" parent="v1RKLjTQbKLcgLYHgIqZ-2" vertex="1">
          <mxGeometry y="86" width="160" height="26" as="geometry" />
        </mxCell>
        <mxCell id="v1RKLjTQbKLcgLYHgIqZ-11" value="+ listarP: void" style="text;strokeColor=none;fillColor=none;align=left;verticalAlign=top;spacingLeft=4;spacingRight=4;overflow=hidden;rotatable=0;points=[[0,0.5],[1,0.5]];portConstraint=eastwest;" parent="v1RKLjTQbKLcgLYHgIqZ-2" vertex="1">
          <mxGeometry y="112" width="160" height="26" as="geometry" />
        </mxCell>
        <mxCell id="v1RKLjTQbKLcgLYHgIqZ-14" value="+ listarM: void" style="text;strokeColor=none;fillColor=none;align=left;verticalAlign=top;spacingLeft=4;spacingRight=4;overflow=hidden;rotatable=0;points=[[0,0.5],[1,0.5]];portConstraint=eastwest;" parent="v1RKLjTQbKLcgLYHgIqZ-2" vertex="1">
          <mxGeometry y="138" width="160" height="26" as="geometry" />
        </mxCell>
        <mxCell id="v1RKLjTQbKLcgLYHgIqZ-15" value="+ listarC: void" style="text;strokeColor=none;fillColor=none;align=left;verticalAlign=top;spacingLeft=4;spacingRight=4;overflow=hidden;rotatable=0;points=[[0,0.5],[1,0.5]];portConstraint=eastwest;" parent="v1RKLjTQbKLcgLYHgIqZ-2" vertex="1">
          <mxGeometry y="164" width="160" height="26" as="geometry" />
        </mxCell>
        <mxCell id="v1RKLjTQbKLcgLYHgIqZ-10" value="+ alterarP: void" style="text;strokeColor=none;fillColor=none;align=left;verticalAlign=top;spacingLeft=4;spacingRight=4;overflow=hidden;rotatable=0;points=[[0,0.5],[1,0.5]];portConstraint=eastwest;" parent="v1RKLjTQbKLcgLYHgIqZ-2" vertex="1">
          <mxGeometry y="190" width="160" height="26" as="geometry" />
        </mxCell>
        <mxCell id="v1RKLjTQbKLcgLYHgIqZ-16" value="+ alterarM: void" style="text;strokeColor=none;fillColor=none;align=left;verticalAlign=top;spacingLeft=4;spacingRight=4;overflow=hidden;rotatable=0;points=[[0,0.5],[1,0.5]];portConstraint=eastwest;" parent="v1RKLjTQbKLcgLYHgIqZ-2" vertex="1">
          <mxGeometry y="216" width="160" height="26" as="geometry" />
        </mxCell>
        <mxCell id="v1RKLjTQbKLcgLYHgIqZ-17" value="+ alterarC: void" style="text;strokeColor=none;fillColor=none;align=left;verticalAlign=top;spacingLeft=4;spacingRight=4;overflow=hidden;rotatable=0;points=[[0,0.5],[1,0.5]];portConstraint=eastwest;" parent="v1RKLjTQbKLcgLYHgIqZ-2" vertex="1">
          <mxGeometry y="242" width="160" height="28" as="geometry" />
        </mxCell>
        <mxCell id="v1RKLjTQbKLcgLYHgIqZ-9" value="+ removerP :void" style="text;strokeColor=none;fillColor=none;align=left;verticalAlign=top;spacingLeft=4;spacingRight=4;overflow=hidden;rotatable=0;points=[[0,0.5],[1,0.5]];portConstraint=eastwest;" parent="v1RKLjTQbKLcgLYHgIqZ-2" vertex="1">
          <mxGeometry y="270" width="160" height="26" as="geometry" />
        </mxCell>
        <mxCell id="v1RKLjTQbKLcgLYHgIqZ-18" value="+ removerM :void" style="text;strokeColor=none;fillColor=none;align=left;verticalAlign=top;spacingLeft=4;spacingRight=4;overflow=hidden;rotatable=0;points=[[0,0.5],[1,0.5]];portConstraint=eastwest;" parent="v1RKLjTQbKLcgLYHgIqZ-2" vertex="1">
          <mxGeometry y="296" width="160" height="26" as="geometry" />
        </mxCell>
        <mxCell id="v1RKLjTQbKLcgLYHgIqZ-19" value="+ removerC :void" style="text;strokeColor=none;fillColor=none;align=left;verticalAlign=top;spacingLeft=4;spacingRight=4;overflow=hidden;rotatable=0;points=[[0,0.5],[1,0.5]];portConstraint=eastwest;" parent="v1RKLjTQbKLcgLYHgIqZ-2" vertex="1">
          <mxGeometry y="322" width="160" height="26" as="geometry" />
        </mxCell>
        <mxCell id="KHj5EBnZgxn2LjwYI5dc-0" value="+ menu : void" style="text;strokeColor=none;fillColor=none;align=left;verticalAlign=top;spacingLeft=4;spacingRight=4;overflow=hidden;rotatable=0;points=[[0,0.5],[1,0.5]];portConstraint=eastwest;" vertex="1" parent="v1RKLjTQbKLcgLYHgIqZ-2">
          <mxGeometry y="348" width="160" height="26" as="geometry" />
        </mxCell>
      </root>
    </mxGraphModel>
  </diagram>
</mxfile>
